<?xml version="1.0" encoding="UTF-8"?>
<svg width="24px" height="24px" viewBox="0 0 24 24" version="1.1" xmlns="http://www.w3.org/2000/svg" xmlns:xlink="http://www.w3.org/1999/xlink">
    <title>Icon/Grid/Substation v5</title>
    <defs>
        <path d="M5.09856805,4 C5.92931919,4.9140582 6.93750896,5.57427184 8.12313737,5.9806409 C8.44300618,6.09027457 8.72933592,6.18746648 8.9821266,6.27221665 L9.33615832,6.39001058 C9.51083614,6.4476187 9.66422566,6.49732966 9.79632688,6.53914345 L10.4482739,6.53846154 L10.4474657,7.461 L10.7336697,7.46153846 C10.9036034,7.46153846 11.041362,7.599297 11.041362,7.76923077 C11.041362,7.93916454 10.9036034,8.07692308 10.7336697,8.07692308 L10.4474657,8.076 L10.4474657,8.692 L10.7336697,8.69230769 C10.9036034,8.69230769 11.041362,8.83006623 11.041362,9 C11.041362,9.16993377 10.9036034,9.30769231 10.7336697,9.30769231 L10.4474657,9.307 L10.4482739,10.5384615 L13.1929785,10.5384615 L13.1924657,9.307 L12.9075827,9.30769231 C12.7376489,9.30769231 12.5998904,9.16993377 12.5998904,9 C12.5998904,8.83006623 12.7376489,8.69230769 12.9075827,8.69230769 L13.1924657,8.692 L13.1924657,8.076 L12.9075827,8.07692308 C12.7376489,8.07692308 12.5998904,7.93916454 12.5998904,7.76923077 C12.5998904,7.599297 12.7376489,7.46153846 12.9075827,7.46153846 L13.1924657,7.461 L13.1929785,6.53846154 L14.0653651,6.53914345 C14.1974663,6.49732966 14.3508558,6.4476187 14.5255336,6.39001058 L14.8795653,6.27221665 C15.132356,6.18746648 15.4186858,6.09027457 15.7385546,5.9806409 C16.924183,5.57427184 17.9323727,4.9140582 18.7631239,4 L19.8616919,4.00014164 C18.7413447,5.41067034 17.478175,6.29573018 16.072183,6.65532114 C15.4485478,6.81481959 14.8348785,6.96286521 14.3769752,7.02171047 L14.3784657,7.461 L14.6645504,7.46153846 C14.8344842,7.46153846 14.9722427,7.599297 14.9722427,7.76923077 C14.9722427,7.93916454 14.8344842,8.07692308 14.6645504,8.07692308 L14.3784657,8.076 L14.3784657,8.692 L14.6645504,8.69230769 C14.8344842,8.69230769 14.9722427,8.83006623 14.9722427,9 C14.9722427,9.16993377 14.8344842,9.30769231 14.6645504,9.30769231 L14.3784657,9.307 L14.3791546,10.5384615 L18.0480509,10.5384615 L18.0480509,11.1538462 L17.4541134,11.1534615 L17.4541993,12.3854296 L17.4702327,12.3848197 L17.4702327,12.3848197 L18.016647,12.3846154 C18.3615444,12.3846154 18.641139,12.66421 18.641139,13.0091074 L18.641139,17.9139695 C18.641139,18.2588669 18.3615444,18.5384615 18.016647,18.5384615 L17.4863668,18.5384615 L17.4541134,18.5354615 L17.4541134,19.7684615 L18.0480509,19.7692308 L18.0480509,20.3846154 L16.2687867,20.3846154 L16.2687867,21 L13.8964344,21 L13.8964344,20.3846154 L9.74481794,20.3846154 L9.74481794,21 L7.37246566,21 L7.37246566,20.3846154 L5.59320144,20.3846154 L5.59320144,19.7692308 L6.18611337,19.7684615 L6.18705307,18.5376474 L6.1710197,18.5382572 L6.1710197,18.5382572 L5.62460538,18.5384615 C5.27970797,18.5384615 5.00011337,18.2588669 5.00011337,17.9139695 L5.00011337,13.0091074 C5.00011337,12.66421 5.27970797,12.3846154 5.62460538,12.3846154 L6.15488558,12.3846154 L6.18611337,12.3864615 L6.18611337,11.1534615 L5.59320144,11.1538462 L5.59320144,10.5384615 L9.26209777,10.5384615 L9.26146566,9.307 L8.976702,9.30769231 C8.80676823,9.30769231 8.66900969,9.16993377 8.66900969,9 C8.66900969,8.83006623 8.80676823,8.69230769 8.976702,8.69230769 L9.26146566,8.692 L9.26146566,8.076 L8.976702,8.07692308 C8.80676823,8.07692308 8.66900969,7.93916454 8.66900969,7.76923077 C8.66900969,7.599297 8.80676823,7.46153846 8.976702,7.46153846 L9.26146566,7.461 L9.26426724,6.98873901 C8.83891571,6.91732397 8.31778794,6.79043167 7.78950897,6.65532114 C6.3835169,6.29573018 5.12034724,5.41067034 4,4.00014164 L5.09856805,4 Z M16.8915292,11.1538462 L6.74972318,11.1538462 L6.75039552,12.8205141 C6.76922245,12.8800178 6.77937759,12.9433767 6.77937759,13.0091074 L6.77937759,17.9139695 C6.77937759,17.9797003 6.76922245,18.0430591 6.75039552,18.1025628 L6.74972318,19.7692308 L16.8915292,19.7692308 L16.8908569,18.1025628 C16.8720299,18.0430591 16.8618748,17.9797003 16.8618748,17.9139695 L16.8618748,13.0091074 C16.8618748,12.9433767 16.8720299,12.8800178 16.8908569,12.8205141 L16.8915292,11.1538462 Z M9.16820454,12.2380952 L9.16820454,19.0952381 L7.65253503,19.0952381 L7.65253503,12.2380952 L9.16820454,12.2380952 Z M11.4417088,12.2380952 L11.4417088,19.0952381 L9.9260393,19.0952381 L9.9260393,12.2380952 L11.4417088,12.2380952 Z M13.7152131,12.2380952 L13.7152131,19.0952381 L12.1995436,19.0952381 L12.1995436,12.2380952 L13.7152131,12.2380952 Z M15.9887174,12.2380952 L15.9887174,19.0952381 L14.4730478,19.0952381 L14.4730478,12.2380952 L15.9887174,12.2380952 Z" id="path-1"></path>
    </defs>
    <g id="Icon/Grid/Substation-v5" stroke="none" stroke-width="1" fill="none" fill-rule="evenodd">
        <polygon id="Bounding-Box" points="0 0 24 0 24 24 0 24"></polygon>
        <mask id="mask-2" fill="white">
            <use xlink:href="#path-1"></use>
        </mask>
        <g id="Combined-Shape"></g>
        <g id="Group" mask="url(#mask-2)" fill="#0B182C">
            <g id="Mixin/Fill/Black">
                <rect id="Rectangle" x="0" y="0" width="24" height="24"></rect>
            </g>
        </g>
    </g>
</svg>