<?xml version="1.0" encoding="UTF-8"?>
<svg width="24px" height="24px" viewBox="0 0 24 24" version="1.1" xmlns="http://www.w3.org/2000/svg" xmlns:xlink="http://www.w3.org/1999/xlink">
    <title>Icon/Grid/Transmission v3</title>
    <defs>
        <path d="M12.501,2 L12.5269841,2.07852992 L12.75,3.12837851 L15.9241352,4.52496834 L15.9462813,4.53930099 L15.9886323,4.54481208 C16.0650303,4.5658268 16.1252068,4.62600339 16.1462216,4.70240135 L16.1542813,4.76238289 C16.1542813,4.86622648 16.0841297,4.9536853 15.9886323,4.9799537 L15.9286507,4.98801344 L13.146,4.98737851 L13.514,6.71137851 L17.7480051,8.57452025 L17.768,8.58737851 L17.8125021,8.59436398 C17.8889001,8.6153787 17.9490767,8.67555529 17.9700914,8.75195326 L17.9781512,8.81193479 C17.9781512,8.91577839 17.9079996,9.00323721 17.8125021,9.0295056 L17.7525206,9.03756534 L13.845,9.03737851 L13.915,10.4903785 L13.9288161,10.4949764 L17.7698539,12.1846091 L17.791,12.1983785 L17.834351,12.2044528 C17.910749,12.2254675 17.9709255,12.2856441 17.9919403,12.3620421 L18,12.4220236 C18,12.5258672 17.9298484,12.613326 17.834351,12.6395944 L17.7743694,12.6476542 L14.244,12.6473785 L16.7010766,21.3601795 C17.1559757,21.4748797 17.5158089,21.7120602 17.6832173,22.0088918 L14.4787456,22.0088918 C14.6269309,21.7461447 14.9258869,21.530136 15.3080893,21.4044414 L12.839,12.6473785 L11.088,12.6473785 L8.62472189,21.3894676 C9.02953839,21.5125358 9.34714993,21.7353928 9.50139908,22.0088918 L6.29692744,22.0088918 C6.45711411,21.724865 6.79348186,21.4954539 7.22073577,21.3757022 L9.683,12.6473785 L6.22563055,12.6476542 C6.10101824,12.6476542 6,12.5466359 6,12.4220236 C6,12.31818 6.07015155,12.2307212 6.16564901,12.2044528 L6.208,12.1983785 L6.23014607,12.1846091 L10.045,10.5053785 L10.116,9.03737851 L6.22563055,9.03756534 C6.10101824,9.03756534 6,8.93654711 6,8.81193479 C6,8.7080912 6.07015155,8.62063238 6.16564901,8.59436398 L6.209,8.58737851 L6.23014607,8.57452025 L10.446,6.71937851 L10.815,4.98737851 L7.92973003,4.98801344 L7.8697485,4.9799537 C7.79335053,4.95893898 7.73317394,4.8987624 7.71215922,4.82236443 L7.70409948,4.76238289 L7.71215922,4.70240135 C7.72792026,4.64510288 7.76570985,4.59692893 7.81584997,4.56755752 L7.8697485,4.54481208 L7.91209948,4.53930099 L7.93424555,4.52496834 L11.222,3.07837851 L11.4352766,2.07852992 L11.46,2 L12.501,2 Z M7.91820428,12.7300728 C8.05527586,12.7300728 8.17010193,12.8253172 8.20011199,12.9532355 L8.20775935,13.0196278 L8.20775935,13.7353505 C8.20775935,13.9092167 8.0726784,14.0531691 7.89916326,14.0642136 L7.87331177,14.0646717 C7.73982527,14.0609168 7.63061162,13.9650179 7.6048907,13.8396231 L7.59926213,13.7747578 L7.62050722,13.0195133 C7.62504048,12.8583598 7.75698703,12.7300728 7.91820428,12.7300728 Z M16.1000225,12.7300728 C16.237094,12.7300728 16.3519201,12.8253172 16.3819302,12.9532355 L16.3895775,13.0196278 L16.3895775,13.7353505 C16.3895775,13.9092167 16.2544966,14.0531691 16.0809814,14.0642136 L16.05513,14.0646717 C15.9216434,14.0609168 15.8124298,13.9650179 15.7867089,13.8396231 L15.7810803,13.7747578 L15.8023254,13.0195133 C15.8068587,12.8583598 15.9388052,12.7300728 16.1000225,12.7300728 Z M10.017,11.0903785 L8.259,11.85 L9.98,11.85 L10.017,11.0903785 Z M12.754,9.03737851 L11.207,9.03737851 L11.071,11.85 L12.89,11.85 L12.754,9.03737851 Z M13.943,11.0733785 L13.98,11.85 L15.74,11.85 L13.943,11.0733785 Z M6.82729519,9.11998395 C6.96436677,9.11998395 7.07919284,9.21522836 7.1092029,9.3431467 L7.11685026,9.40953902 L7.11685026,10.1252616 C7.11685026,10.2991279 6.9817693,10.4430803 6.80825417,10.4541247 L6.78240268,10.4545829 C6.64891618,10.4508279 6.53970253,10.354929 6.51398161,10.2295343 L6.50835304,10.1646689 L6.52959813,9.40942453 C6.53413139,9.24827102 6.66607793,9.11998395 6.82729519,9.11998395 Z M17.1909315,9.11998395 C17.3280031,9.11998395 17.4428292,9.21522836 17.4728393,9.3431467 L17.4804866,9.40953902 L17.4804866,10.1252616 C17.4804866,10.2991279 17.3454057,10.4430803 17.1718905,10.4541247 L17.146039,10.4545829 C17.0125525,10.4508279 16.9033389,10.354929 16.877618,10.2295343 L16.8719894,10.1646689 L16.8932345,9.40942453 C16.8977678,9.24827102 17.0297143,9.11998395 17.1909315,9.11998395 Z M10.312,7.34837851 L8.232,8.25 L10.154,8.25 L10.1667483,8.01331177 L10.1775199,7.93492525 C10.1835872,7.90845171 10.1919988,7.88291056 10.2025178,7.85852181 L10.312,7.34837851 Z M12.038,4.98737851 L11.922,4.98737851 L11.262864,8.08489417 L11.252,8.11437851 L11.245,8.25 L12.716,8.25 L12.709,8.11437851 L12.6993967,8.08489417 L12.038,4.98737851 Z M13.648,7.34137851 L13.7583788,7.85539248 C13.7695365,7.88072303 13.7784134,7.90731713 13.7847408,7.93492525 L13.7955124,8.01331177 L13.807,8.25 L15.745,8.25 L13.648,7.34137851 Z M8.46365882,5.05863403 C8.60073041,5.05863403 8.71555647,5.15387843 8.74556654,5.28179678 L8.7532139,5.3481891 L8.7532139,6.06391171 C8.7532139,6.21293995 8.65397075,6.33999063 8.51634655,6.38020454 L8.4446178,6.39277482 L8.41876631,6.39323299 C8.28527981,6.38947801 8.17606616,6.29357911 8.15034524,6.16818435 L8.14471667,6.10331901 L8.16596176,5.3480746 C8.17049502,5.1869211 8.30244157,5.05863403 8.46365882,5.05863403 Z M15.5545679,5.05863403 C15.6916395,5.05863403 15.8064656,5.15387843 15.8364756,5.28179678 L15.844123,5.3481891 L15.844123,6.06391171 C15.844123,6.21293995 15.7448798,6.33999063 15.6072556,6.38020454 L15.5355269,6.39277482 L15.5096754,6.39323299 C15.3761889,6.38947801 15.2669753,6.29357911 15.2412543,6.16818435 L15.2356258,6.10331901 L15.2568709,5.3480746 C15.2614041,5.1869211 15.3933507,5.05863403 15.5545679,5.05863403 Z M11.088,3.70537851 L9.827,4.25 L10.972,4.25 L11.088,3.70537851 Z M12.883,3.75437851 L12.989,4.25 L14.031,4.25 L12.883,3.75437851 Z" id="path-1"></path>
    </defs>
    <g id="Icon/Grid/Transmission-v3" stroke="none" stroke-width="1" fill="none" fill-rule="evenodd">
        <polygon id="Bounding-Box" points="0 0 24 0 24 24 0 24"></polygon>
        <mask id="mask-2" fill="white">
            <use xlink:href="#path-1"></use>
        </mask>
        <g id="Combined-Shape"></g>
        <g id="Group" mask="url(#mask-2)" fill="#0B182C">
            <g id="Mixin/Fill/Black">
                <rect id="Rectangle" x="0" y="0" width="24" height="24"></rect>
            </g>
        </g>
    </g>
</svg>